<svg width="29" height="27" viewBox="0 0 29 27" fill="none" xmlns="http://www.w3.org/2000/svg">
<g clip-path="url(#clip0_17_24)">
<path d="M28.8736 11.5957L15.6384 0.420804C15.3167 0.147317 14.915 -0.00195503 14.5008 -0.00195503C14.0865 -0.00195503 13.6848 0.147317 13.3632 0.420804L0.127879 11.5957C0.0929154 11.625 0.0638459 11.6612 0.0423587 11.7023C0.0208715 11.7434 0.00739474 11.7886 0.00271074 11.8352C-0.00197327 11.8818 0.00222886 11.9289 0.0150731 11.9738C0.0279174 12.0187 0.049148 12.0605 0.0775322 12.0967L0.792463 13.0196C0.820873 13.0563 0.855919 13.0868 0.895596 13.1093C0.935272 13.1319 0.978801 13.146 1.02369 13.1509C1.06858 13.1558 1.11395 13.1514 1.15721 13.1379C1.20047 13.1244 1.24077 13.1021 1.2758 13.0723L3.22272 11.4275V26.1552C3.22272 26.379 3.30759 26.5936 3.45867 26.7518C3.60974 26.91 3.81463 26.9989 4.02828 26.9989H24.9727C25.1864 26.9989 25.3913 26.91 25.5423 26.7518C25.6934 26.5936 25.7783 26.379 25.7783 26.1552V11.4328L27.7318 13.0829C27.8025 13.1429 27.8932 13.1711 27.9838 13.1612C28.0745 13.1513 28.1576 13.1042 28.2151 13.0301L28.9295 12.1073C28.984 12.0305 29.0085 11.9349 28.9981 11.8399C28.9877 11.7449 28.9432 11.6576 28.8736 11.5957ZM12.0838 25.3114V16.8739H16.9172V25.3114H12.0838ZM24.1672 25.3114H18.5283V16.0302C18.5283 15.8064 18.4434 15.5918 18.2923 15.4336C18.1413 15.2753 17.9364 15.1864 17.7227 15.1864H11.2783C11.0646 15.1864 10.8597 15.2753 10.7087 15.4336C10.5576 15.5918 10.4727 15.8064 10.4727 16.0302V25.3114H4.83384V10.067L14.2845 2.08299C14.3442 2.03184 14.4189 2.00389 14.496 2.00389C14.5731 2.00389 14.6478 2.03184 14.7074 2.08299L24.1672 10.0712V25.3114Z" fill="black"/>
</g>
<defs>
<clipPath id="clip0_17_24">
<rect width="29" height="27" fill="white"/>
</clipPath>
</defs>
</svg>
